<svg width="90" height="22" viewBox="0 0 90 22" fill="none" xmlns="http://www.w3.org/2000/svg">
<path d="M4.488 17.312C3.8 17.312 3.176 17.192 2.616 16.952C2.072 16.696 1.64 16.312 1.32 15.8C1 15.272 0.84 14.624 0.84 13.856C0.84 13.024 1.016 12.36 1.368 11.864C1.72 11.368 2.176 10.984 2.736 10.712C3.312 10.424 3.928 10.216 4.584 10.088C5.24 9.944 5.88 9.824 6.504 9.728C7.176 9.632 7.696 9.544 8.064 9.464C8.432 9.368 8.688 9.24 8.832 9.08C8.992 8.92 9.072 8.696 9.072 8.408C9.072 8.04 8.984 7.72 8.808 7.448C8.648 7.16 8.4 6.936 8.064 6.776C7.744 6.616 7.344 6.536 6.864 6.536C6.416 6.536 5.984 6.616 5.568 6.776C5.152 6.936 4.792 7.192 4.488 7.544C4.2 7.896 4.016 8.36 3.936 8.936L1.224 8.312C1.336 7.576 1.56 6.952 1.896 6.44C2.232 5.912 2.648 5.48 3.144 5.144C3.656 4.792 4.224 4.536 4.848 4.376C5.488 4.216 6.168 4.136 6.888 4.136C7.816 4.136 8.608 4.264 9.264 4.52C9.936 4.76 10.472 5.12 10.872 5.6C11.288 6.08 11.584 6.656 11.76 7.328C11.952 7.984 12.048 8.728 12.048 9.56V11.864C12.064 12.424 12.08 12.992 12.096 13.568C12.112 14.144 12.128 14.72 12.144 15.296C12.176 15.872 12.208 16.44 12.24 17H9.552C9.52 16.488 9.488 15.952 9.456 15.392C9.44 14.832 9.424 14.256 9.408 13.664H9.096C8.92 14.336 8.624 14.952 8.208 15.512C7.792 16.056 7.272 16.496 6.648 16.832C6.024 17.152 5.304 17.312 4.488 17.312ZM5.64 15.056C5.976 15.056 6.32 14.992 6.672 14.864C7.024 14.736 7.36 14.544 7.68 14.288C8.016 14.032 8.304 13.712 8.544 13.328C8.8 12.928 8.992 12.464 9.12 11.936L9.096 10.352L9.696 10.376C9.456 10.616 9.144 10.8 8.76 10.928C8.392 11.04 7.984 11.136 7.536 11.216C7.104 11.28 6.664 11.352 6.216 11.432C5.784 11.512 5.384 11.624 5.016 11.768C4.648 11.912 4.352 12.112 4.128 12.368C3.92 12.624 3.816 12.968 3.816 13.4C3.816 13.912 3.984 14.32 4.32 14.624C4.656 14.912 5.096 15.056 5.64 15.056ZM14.7994 20.792V10.328V4.472H17.4154L17.3434 8.072L17.6794 8.096C17.8554 7.216 18.1194 6.488 18.4714 5.912C18.8394 5.32 19.3034 4.88 19.8634 4.592C20.4394 4.288 21.1034 4.136 21.8554 4.136C22.9274 4.136 23.8394 4.4 24.5914 4.928C25.3594 5.456 25.9434 6.216 26.3434 7.208C26.7434 8.2 26.9434 9.376 26.9434 10.736C26.9434 12.08 26.7434 13.248 26.3434 14.24C25.9594 15.216 25.3994 15.976 24.6634 16.52C23.9274 17.048 23.0394 17.312 21.9994 17.312C21.1834 17.312 20.4954 17.152 19.9354 16.832C19.3754 16.496 18.9114 16.024 18.5434 15.416C18.1914 14.808 17.9194 14.096 17.7274 13.28H17.3434C17.4394 13.776 17.5194 14.264 17.5834 14.744C17.6634 15.224 17.7274 15.696 17.7754 16.16C17.8234 16.608 17.8474 17.04 17.8474 17.456V20.792H14.7994ZM20.9914 14.816C21.5994 14.816 22.1114 14.648 22.5274 14.312C22.9434 13.96 23.2554 13.48 23.4634 12.872C23.6874 12.264 23.7994 11.56 23.7994 10.76C23.7994 9.944 23.6874 9.24 23.4634 8.648C23.2394 8.04 22.9114 7.568 22.4794 7.232C22.0634 6.896 21.5594 6.728 20.9674 6.728C20.4554 6.728 19.9994 6.84 19.5994 7.064C19.2154 7.288 18.8874 7.592 18.6154 7.976C18.3594 8.344 18.1594 8.752 18.0154 9.2C17.8874 9.648 17.8234 10.104 17.8234 10.568V10.904C17.8234 11.256 17.8634 11.616 17.9434 11.984C18.0394 12.336 18.1754 12.68 18.3514 13.016C18.5274 13.352 18.7354 13.656 18.9754 13.928C19.2314 14.2 19.5274 14.416 19.8634 14.576C20.1994 14.736 20.5754 14.816 20.9914 14.816ZM29.3072 20.792V10.328V4.472H31.9232L31.8512 8.072L32.1872 8.096C32.3632 7.216 32.6272 6.488 32.9792 5.912C33.3472 5.32 33.8112 4.88 34.3712 4.592C34.9472 4.288 35.6112 4.136 36.3632 4.136C37.4352 4.136 38.3472 4.4 39.0992 4.928C39.8672 5.456 40.4512 6.216 40.8512 7.208C41.2512 8.2 41.4512 9.376 41.4512 10.736C41.4512 12.08 41.2512 13.248 40.8512 14.24C40.4672 15.216 39.9072 15.976 39.1712 16.52C38.4352 17.048 37.5472 17.312 36.5072 17.312C35.6912 17.312 35.0032 17.152 34.4432 16.832C33.8832 16.496 33.4192 16.024 33.0512 15.416C32.6992 14.808 32.4272 14.096 32.2352 13.28H31.8512C31.9472 13.776 32.0272 14.264 32.0912 14.744C32.1712 15.224 32.2352 15.696 32.2832 16.16C32.3312 16.608 32.3552 17.04 32.3552 17.456V20.792H29.3072ZM35.4992 14.816C36.1072 14.816 36.6192 14.648 37.0352 14.312C37.4512 13.96 37.7632 13.48 37.9712 12.872C38.1952 12.264 38.3072 11.56 38.3072 10.76C38.3072 9.944 38.1952 9.24 37.9712 8.648C37.7472 8.04 37.4192 7.568 36.9872 7.232C36.5712 6.896 36.0672 6.728 35.4752 6.728C34.9632 6.728 34.5072 6.84 34.1072 7.064C33.7232 7.288 33.3952 7.592 33.1232 7.976C32.8672 8.344 32.6672 8.752 32.5232 9.2C32.3952 9.648 32.3312 10.104 32.3312 10.568V10.904C32.3312 11.256 32.3712 11.616 32.4512 11.984C32.5472 12.336 32.6832 12.68 32.8592 13.016C33.0352 13.352 33.2432 13.656 33.4832 13.928C33.7392 14.2 34.0352 14.416 34.3712 14.576C34.7072 14.736 35.0832 14.816 35.4992 14.816ZM43.815 17V0.128H46.815V17H43.815ZM55.3853 17.312C54.1693 17.312 53.0893 17.064 52.1453 16.568C51.2173 16.072 50.4813 15.336 49.9373 14.36C49.4093 13.368 49.1453 12.152 49.1453 10.712C49.1453 9.224 49.4173 8 49.9613 7.04C50.5053 6.064 51.2413 5.336 52.1693 4.856C53.1133 4.376 54.1773 4.136 55.3613 4.136C56.5773 4.136 57.6493 4.384 58.5773 4.88C59.5213 5.376 60.2573 6.112 60.7853 7.088C61.3293 8.064 61.6013 9.288 61.6013 10.76C61.6013 12.248 61.3293 13.48 60.7853 14.456C60.2413 15.416 59.4973 16.136 58.5533 16.616C57.6093 17.08 56.5533 17.312 55.3853 17.312ZM55.4573 15.008C55.8733 15.008 56.2653 14.936 56.6333 14.792C57.0173 14.632 57.3453 14.392 57.6173 14.072C57.9053 13.752 58.1293 13.328 58.2893 12.8C58.4493 12.272 58.5293 11.64 58.5293 10.904C58.5293 10.136 58.4413 9.48 58.2653 8.936C58.0893 8.376 57.8493 7.92 57.5453 7.568C57.2573 7.216 56.9133 6.96 56.5133 6.8C56.1293 6.64 55.7133 6.56 55.2653 6.56C54.8653 6.56 54.4813 6.64 54.1133 6.8C53.7453 6.944 53.4173 7.176 53.1293 7.496C52.8413 7.816 52.6173 8.24 52.4573 8.768C52.2973 9.296 52.2173 9.928 52.2173 10.664C52.2173 11.432 52.2973 12.096 52.4573 12.656C52.6333 13.2 52.8733 13.648 53.1773 14C53.4813 14.336 53.8253 14.592 54.2093 14.768C54.5933 14.928 55.0093 15.008 55.4573 15.008ZM68.7032 21.104C67.3272 21.104 66.2152 21 65.3672 20.792C64.5192 20.584 63.9032 20.272 63.5192 19.856C63.1352 19.456 62.9432 18.968 62.9432 18.392C62.9432 17.672 63.2232 17.088 63.7832 16.64C64.3592 16.176 65.2152 15.872 66.3512 15.728V15.368C65.4872 15.368 64.8312 15.264 64.3832 15.056C63.9352 14.848 63.7112 14.512 63.7112 14.048C63.7112 13.616 63.9272 13.232 64.3592 12.896C64.8072 12.56 65.5352 12.304 66.5432 12.128V11.744C65.5832 11.648 64.8312 11.312 64.2872 10.736C63.7592 10.16 63.4952 9.416 63.4952 8.504C63.4952 7.688 63.7112 6.976 64.1432 6.368C64.5912 5.744 65.2312 5.256 66.0632 4.904C66.9112 4.552 67.9352 4.376 69.1352 4.376H75.3752V6.8L71.3432 6.224V6.632C72.3992 6.808 73.1592 7.112 73.6232 7.544C74.1032 7.96 74.3432 8.504 74.3432 9.176C74.3432 9.816 74.1352 10.392 73.7192 10.904C73.3192 11.4 72.7352 11.792 71.9672 12.08C71.1992 12.352 70.2552 12.488 69.1352 12.488C68.8792 12.488 68.6232 12.48 68.3672 12.464C68.1112 12.432 67.7672 12.384 67.3352 12.32C66.9512 12.544 66.6552 12.744 66.4472 12.92C66.2552 13.096 66.1592 13.264 66.1592 13.424C66.1592 13.536 66.2312 13.632 66.3752 13.712C66.5192 13.776 66.7032 13.824 66.9272 13.856C67.1512 13.888 67.3832 13.904 67.6232 13.904H71.1272C71.4312 13.904 71.8312 13.928 72.3272 13.976C72.8392 14.024 73.3432 14.152 73.8392 14.36C74.3512 14.552 74.7752 14.872 75.1112 15.32C75.4632 15.752 75.6392 16.376 75.6392 17.192C75.6392 18.088 75.3832 18.824 74.8712 19.4C74.3592 19.992 73.5912 20.424 72.5672 20.696C71.5432 20.968 70.2552 21.104 68.7032 21.104ZM68.8472 18.584C69.9032 18.584 70.7272 18.528 71.3192 18.416C71.9272 18.304 72.3512 18.136 72.5912 17.912C72.8312 17.688 72.9512 17.4 72.9512 17.048C72.9512 16.728 72.8712 16.48 72.7112 16.304C72.5512 16.112 72.3432 15.976 72.0872 15.896C71.8472 15.816 71.5992 15.768 71.3432 15.752C71.0872 15.736 70.8712 15.728 70.6952 15.728H67.6472C66.9272 15.888 66.4232 16.112 66.1352 16.4C65.8472 16.672 65.7032 16.984 65.7032 17.336C65.7032 17.688 65.8312 17.952 66.0872 18.128C66.3432 18.304 66.7032 18.424 67.1672 18.488C67.6472 18.552 68.2072 18.584 68.8472 18.584ZM69.0392 10.784C69.8232 10.784 70.4232 10.592 70.8392 10.208C71.2712 9.808 71.4872 9.296 71.4872 8.672C71.4872 8 71.2712 7.448 70.8392 7.016C70.4072 6.584 69.7992 6.368 69.0152 6.368C68.2152 6.368 67.5912 6.584 67.1432 7.016C66.7112 7.432 66.4952 7.968 66.4952 8.624C66.4952 9.04 66.5912 9.416 66.7832 9.752C66.9912 10.072 67.2792 10.328 67.6472 10.52C68.0312 10.696 68.4952 10.784 69.0392 10.784ZM82.9478 17.312C81.7318 17.312 80.6518 17.064 79.7078 16.568C78.7798 16.072 78.0438 15.336 77.4998 14.36C76.9718 13.368 76.7078 12.152 76.7078 10.712C76.7078 9.224 76.9798 8 77.5238 7.04C78.0678 6.064 78.8038 5.336 79.7318 4.856C80.6758 4.376 81.7398 4.136 82.9238 4.136C84.1398 4.136 85.2118 4.384 86.1398 4.88C87.0838 5.376 87.8198 6.112 88.3478 7.088C88.8918 8.064 89.1638 9.288 89.1638 10.76C89.1638 12.248 88.8918 13.48 88.3478 14.456C87.8038 15.416 87.0598 16.136 86.1158 16.616C85.1718 17.08 84.1158 17.312 82.9478 17.312ZM83.0198 15.008C83.4358 15.008 83.8278 14.936 84.1958 14.792C84.5798 14.632 84.9078 14.392 85.1798 14.072C85.4678 13.752 85.6918 13.328 85.8518 12.8C86.0118 12.272 86.0918 11.64 86.0918 10.904C86.0918 10.136 86.0038 9.48 85.8278 8.936C85.6518 8.376 85.4118 7.92 85.1078 7.568C84.8198 7.216 84.4758 6.96 84.0758 6.8C83.6918 6.64 83.2758 6.56 82.8278 6.56C82.4278 6.56 82.0438 6.64 81.6758 6.8C81.3078 6.944 80.9798 7.176 80.6918 7.496C80.4038 7.816 80.1798 8.24 80.0198 8.768C79.8598 9.296 79.7798 9.928 79.7798 10.664C79.7798 11.432 79.8598 12.096 80.0198 12.656C80.1958 13.2 80.4358 13.648 80.7398 14C81.0438 14.336 81.3878 14.592 81.7718 14.768C82.1558 14.928 82.5718 15.008 83.0198 15.008Z" fill="white"/>
</svg>
